<svg width="22" height="22" fill="none" xmlns="http://www.w3.org/2000/svg"><path d="M7 6a2 2 0 0 1 2-2h10a2 2 0 0 1 2 2v11a2 2 0 0 1-2 2H9a2 2 0 0 1-2-2V6Z" fill="#1C6CFF"/><path d="M4 1h11a3 3 0 0 1 3 3v13a3 3 0 0 1-3 3H4V1Z" fill="#B8D4FF"/><path d="M4 1h11a3 3 0 0 1 3 3v13a3 3 0 0 1-3 3H4V1Z" fill="url(#a)"/><path d="M1 2a1 1 0 0 1 1-1h2v19H2a1 1 0 0 1-1-1V2Z" fill="#B8D4FF"/><path stroke="#1C6CFF" stroke-width=".6" stroke-linecap="round" d="M7.3 11.7h7.4M8.3 14.2h5.4"/><defs><linearGradient id="a" x1="17.738" y1="17.625" x2="3.062" y2="4.108" gradientUnits="userSpaceOnUse"><stop stop-color="#C1B4FF" stop-opacity="0"/><stop offset="1" stop-color="#B2A1FF"/></linearGradient></defs></svg>