<svg width="22" height="22" fill="none" xmlns="http://www.w3.org/2000/svg"><rect x="8" y="4" width="14" height="15" rx="2" fill="#1C6CFF"/><path d="M12 1h5a3 3 0 0 1 3 3v13a3 3 0 0 1-3 3h-5V1Z" fill="#B8D4FF"/><path d="M12 1h5a3 3 0 0 1 3 3v13a3 3 0 0 1-3 3h-5V1Z" fill="url(#a)"/><path d="M8 2a1 1 0 0 1 1-1h3v19H9a1 1 0 0 1-1-1V2Z" fill="#C9BEFF"/><path d="M4 2a1 1 0 0 1 1-1h2a1 1 0 0 1 1 1v17a1 1 0 0 1-1 1H5a1 1 0 0 1-1-1V2Z" fill="#B8D4FF"/><rect y="1" width="4" height="19" rx="1" fill="#C9BEFF"/><rect y="1" width="4" height="19" rx="1" fill="#B8D4FF"/><rect y="1" width="4" height="19" rx="1" fill="#E1DBFF"/><path stroke="#1C6CFF" stroke-width=".6" stroke-linecap="round" d="M14.3 11.7h3.4M15.3 14.7h1.4"/><defs><linearGradient id="a" x1="19.852" y1="17.5" x2="11.411" y2="9.997" gradientUnits="userSpaceOnUse"><stop stop-color="#C1B4FF" stop-opacity="0"/><stop offset="1" stop-color="#B2A1FF"/></linearGradient></defs></svg>