<svg width="22" height="22" fill="none" xmlns="http://www.w3.org/2000/svg"><rect x="5" y="1" width="16" height="12" rx="2" fill="#1C6CFF"/><path d="M1 8.606a3 3 0 0 1 1.336-2.497L7 3v14l-4.445 2.963A1 1 0 0 1 1 19.131V8.606Z" fill="#B8D4FF"/><path d="M1 8.606a3 3 0 0 1 1.336-2.497L7 3v14l-4.445 2.963A1 1 0 0 1 1 19.131V8.606Z" fill="url(#a)"/><path d="M13 7 7 3v14l6 4V7Z" fill="#B8D4FF"/><path d="M13 7 7 3v14l6 4V7Z" fill="url(#b)"/><path d="m13 7 4.445-2.964A1 1 0 0 1 19 4.87v10.525a3 3 0 0 1-1.336 2.497L13 21V7Z" fill="#B8D4FF"/><path stroke="#1C6CFF" stroke-width=".5" stroke-linecap="round" d="m15.069 9.653 2.584-1.722M15.069 11.653l2.584-1.722"/><defs><linearGradient id="a" x1="7" y1="9.5" x2="1" y2="9.5" gradientUnits="userSpaceOnUse"><stop stop-color="#B2A1FF"/><stop offset="1" stop-color="#C1B4FF" stop-opacity=".6"/></linearGradient><linearGradient id="b" x1="7" y1="9.5" x2="13" y2="9.5" gradientUnits="userSpaceOnUse"><stop stop-color="#B2A1FF"/><stop offset="1" stop-color="#C1B4FF" stop-opacity=".6"/></linearGradient></defs></svg>